<svg width="271" height="171" viewBox="0 0 271 171" fill="none" xmlns="http://www.w3.org/2000/svg">
<path fill-rule="evenodd" clip-rule="evenodd" d="M69.0833 17.1398C69.0833 22.1132 73.6484 24.5998 82.7786 24.5998C89.9788 24.5998 107.089 21.2595 134.108 14.5789L144.129 12.1293C161.35 7.97248 175.565 5.89406 186.774 5.89406C208.746 5.89406 227.489 11.387 243.002 22.373C258.442 33.3589 266.162 46.6459 266.162 62.2341C266.162 69.2116 264.121 75.1871 260.038 80.1605C255.955 85.1338 253.135 87.5838 245.341 88.5C241.525 88.9486 237 87.5 235.542 86.7297C238.215 88.8082 241.481 89.8474 245.341 89.8474C252.244 89.8474 258.145 86.7669 263.044 80.6058C267.869 74.3706 270.282 66.8734 270.282 58.1144C270.282 44.9758 264.566 32.9135 253.135 21.9276C239.551 8.86323 220.474 2.33105 195.904 2.33105C182.246 2.33105 160.701 5.78697 137.987 11.3542C127.743 6.38081 119.188 3.22181 105.604 3.22181C95.5089 3.22181 86.626 3.75352 79.5 6.5C72.374 9.17225 69.0833 13.2799 69.0833 17.1398ZM80.6631 9.23438C74.502 11.4613 71.4215 14.0222 71.4215 16.9171C71.4215 20.7028 74.9103 22.5956 81.8878 22.5956C95.3233 22.5956 111.876 19.4038 131.547 13.0201C124.863 6.84261 114.037 5.20204 103.125 5.20204C95.1825 5.20204 86.7499 7.0075 80.6631 9.23438Z" fill="black"/>
<path fill-rule="evenodd" clip-rule="evenodd" d="M142.909 27.7584C149.471 -0.540365 102.715 -5.46157 76.4661 8.60775C94.5122 -0.130261 149.471 1.92044 133.476 31.4506C126.12 45.0297 103.059 51.5465 92.4616 51.5465C76.8763 47.4706 68.4223 53.5972 74.8255 53.5972C81.2286 53.5972 88.7023 53.0348 94.5123 52.512C128.554 62.3749 130.195 101.994 94.5123 127.423C82.488 135.992 69.1529 140.942 56.2168 142.963C76.466 124.453 85.8136 100.368 72.7747 87.5398C47.346 62.5212 -12.5347 106.816 6.74198 131.835C16.4047 144.376 32.1089 146.822 49.3967 146.902C36.3584 159.559 18.0092 169.149 1 169.978C11.2535 170.388 29.7099 165.057 52.2677 147.01C82.9741 145.747 118.062 130.824 130.195 97.8925C140.561 69.7559 115.146 55.9628 97.7534 52.3613C119.74 51.2116 138.356 47.3937 142.909 27.7584ZM52.553 143.729C37.2735 145.229 22.3693 145.974 11.2535 134.521C-9.66368 112.969 47.2256 62.811 72.3646 87.95C80.9776 96.563 78.373 116.25 52.553 143.729Z" fill="#121212"/>
<path d="M94.5123 52.512C88.7023 53.0348 81.2286 53.5972 74.8255 53.5972C68.4223 53.5972 76.8763 47.4706 92.4616 51.5465M94.5123 52.512C128.554 62.3749 130.195 101.994 94.5123 127.423C82.488 135.992 69.1529 140.942 56.2168 142.963M94.5123 52.512C95.5998 52.4671 96.6806 52.4174 97.7534 52.3613M92.4616 51.5465C103.059 51.5465 126.12 45.0297 133.476 31.4506C149.471 1.92044 94.5122 -0.130261 76.4661 8.60775C102.715 -5.46157 149.471 -0.540365 142.909 27.7584C138.356 47.3937 119.74 51.2116 97.7534 52.3613M92.4616 51.5465C94.0956 51.703 95.8779 51.9729 97.7534 52.3613M97.7534 52.3613C115.146 55.9628 140.561 69.7559 130.195 97.8925C118.062 130.824 82.9741 145.747 52.2677 147.01M52.2677 147.01C29.7099 165.057 11.2535 170.388 1 169.978C18.0092 169.149 36.3584 159.559 49.3967 146.902M52.2677 147.01C53.5144 145.756 55.023 144.336 56.2168 142.963M52.2677 147.01C50.6633 147.076 50.9749 146.91 49.3967 146.902M49.3967 146.902C32.1089 146.822 16.4047 144.376 6.74198 131.835C-12.5347 106.816 47.346 62.5212 72.7748 87.5398C85.8136 100.368 76.466 124.453 56.2168 142.963M49.3967 146.902C50.5326 145.8 51.4754 144.876 52.553 143.729M56.2168 142.963C54.5023 143.231 54.2494 143.563 52.553 143.729M52.553 143.729C37.2735 145.229 22.3693 145.974 11.2535 134.521C-9.66368 112.969 47.2256 62.811 72.3646 87.95C80.9776 96.563 78.373 116.25 52.553 143.729Z" stroke="black" stroke-width="0.820283"/>
</svg>
