<svg width="57" height="56" viewBox="0 0 57 56" fill="none" xmlns="http://www.w3.org/2000/svg">
<path d="M23.7417 25.7155C23.2988 26.0263 22.7293 26.2128 22.0332 26.2128H18.11V22.1719H21.7801C22.1598 22.1719 22.4762 22.1719 22.7926 22.2341C23.1089 22.2962 23.362 22.4206 23.6152 22.5449C23.8683 22.7314 24.0581 22.9179 24.1847 23.1666C24.3112 23.4153 24.3745 23.7883 24.3745 24.1613C24.3745 24.8451 24.1847 25.4046 23.7417 25.7155Z" fill="#535456"/>
<path d="M23.2988 33.4243C22.9824 33.4865 22.6027 33.5486 22.223 33.5486H18.11V28.7617H22.2863C23.1089 28.7617 23.805 28.9482 24.3112 29.3212C24.8175 29.7564 25.0706 30.3781 25.0706 31.2484C25.0706 31.6836 24.944 32.0566 24.8175 32.3675C24.6276 32.6783 24.4378 32.8648 24.1847 33.0513C23.9316 33.2378 23.6152 33.3621 23.2988 33.4243Z" fill="#535456"/>
<path d="M36.4606 26.275C37.2833 26.275 37.9793 26.5237 38.4223 26.9588C38.8652 27.394 39.1816 28.0157 39.3082 28.9482H33.6131C33.6131 28.7422 33.6565 28.5362 33.7074 28.2948C33.718 28.2449 33.7288 28.1934 33.7397 28.14C33.803 27.8292 33.9295 27.5183 34.1826 27.2697C34.4357 27.021 34.6889 26.7723 35.0685 26.5858C35.4482 26.3993 35.8911 26.275 36.4606 26.275Z" fill="#535456"/>
<path fill-rule="evenodd" clip-rule="evenodd" d="M28.5 0C12.7599 0 0 12.536 0 28C0 43.464 12.7599 56 28.5 56C44.2401 56 57 43.464 57 28C57 12.536 44.2401 0 28.5 0ZM24.8175 19.4987C24.1214 19.3122 23.3621 19.25 22.5394 19.25H14.25V36.4084H22.7293C23.4886 36.4084 24.248 36.284 25.0073 36.0975C25.7666 35.911 26.4627 35.6002 27.0322 35.2272C27.6017 34.8542 28.1079 34.2947 28.4243 33.673C28.7407 33.0513 28.9305 32.3053 28.9305 31.4349C28.9305 30.3781 28.6141 29.4456 28.1079 28.6995C27.6017 27.9535 26.7791 27.394 25.7033 27.0832C26.4627 26.7102 27.0955 26.2128 27.4751 25.6533C27.9181 25.0938 28.1079 24.3478 28.1079 23.4774C28.1079 22.7314 27.9814 22.0476 27.7282 21.488C27.4751 20.9285 27.0955 20.4934 26.5892 20.1825C26.083 19.8717 25.5135 19.623 24.8175 19.4987ZM36.7137 34.2325C35.7013 34.2325 34.942 33.9838 34.4357 33.4865C33.9295 32.9891 33.5498 32.0566 33.5498 31.0619H42.7252C42.7885 30.0672 42.7252 29.1969 42.5986 28.3265C42.3455 27.4562 41.9658 26.648 41.4596 25.9641C40.9534 25.2181 40.3206 24.7208 39.498 24.2856C38.6754 23.8504 37.7262 23.6639 36.6505 23.6639C35.638 23.6639 34.8154 23.8504 33.9928 24.1613C33.2334 24.4721 32.5374 24.9695 31.9679 25.529C31.3984 26.1507 30.9554 26.8345 30.639 27.6427C30.3227 28.4509 30.1961 29.3212 30.1961 30.2537C30.1961 31.2484 30.3227 32.1188 30.639 32.927C30.8922 33.7352 31.3351 34.419 31.9046 34.9785C32.4741 35.6002 33.1069 36.0354 33.9295 36.3462C34.7521 36.657 35.638 36.8436 36.6505 36.8436C38.1059 36.8436 39.3082 36.4705 40.3206 35.8489C41.3331 35.165 42.0924 34.1082 42.5986 32.6161H39.498C39.3714 32.9891 39.055 33.3621 38.5488 33.7351C38.0426 34.046 37.4098 34.2325 36.7137 34.2325ZM39.9409 20.4312H32.8538V22.1097H39.9409V20.4312Z" fill="#535456"/>
</svg>
