<svg width="57" height="56" viewBox="0 0 57 56" fill="none" xmlns="http://www.w3.org/2000/svg">
<path d="M28.5 32.9C25.8281 32.9 23.5125 30.8 23.5125 28C23.5125 25.375 25.65 23.1 28.5 23.1C31.1719 23.1 33.4875 25.2 33.4875 28C33.4875 30.625 31.1719 32.9 28.5 32.9Z" fill="#535456"/>
<path fill-rule="evenodd" clip-rule="evenodd" d="M34.5562 16.1H22.4438C21.0188 16.275 20.3063 16.45 19.7719 16.625C19.0594 16.8 18.525 17.15 17.9906 17.675C17.5678 18.0904 17.368 18.5058 17.1265 19.008C17.0629 19.1403 16.9962 19.279 16.9219 19.425C16.8943 19.5062 16.8625 19.5916 16.8284 19.6832C16.6421 20.1833 16.3875 20.8666 16.3875 22.05V33.95C16.5656 35.35 16.7437 36.05 16.9219 36.575C17.1 37.275 17.4563 37.8 17.9906 38.325C18.4135 38.7404 18.8363 38.9367 19.3474 39.1739C19.4822 39.2365 19.6232 39.3019 19.7719 39.375C19.8545 39.4021 19.9415 39.4333 20.0346 39.4668C20.5437 39.6499 21.2392 39.9 22.4438 39.9H34.5562C35.9812 39.725 36.6938 39.55 37.2281 39.375C37.9406 39.2 38.475 38.85 39.0094 38.325C39.4322 37.9096 39.632 37.4941 39.8735 36.992C39.9372 36.8596 40.0038 36.7211 40.0781 36.575C40.1057 36.4938 40.1375 36.4084 40.1716 36.3168C40.3579 35.8167 40.6125 35.1334 40.6125 33.95V22.05C40.4344 20.65 40.2563 19.95 40.0781 19.425C39.9 18.725 39.5437 18.2 39.0094 17.675C38.5865 17.2596 38.1637 17.0633 37.6526 16.826C37.518 16.7636 37.3766 16.6979 37.2281 16.625C37.1455 16.5979 37.0585 16.5667 36.9654 16.5332C36.4563 16.3501 35.7608 16.1 34.5562 16.1ZM28.5 20.475C24.225 20.475 20.8406 23.8 20.8406 28C20.8406 32.2 24.225 35.525 28.5 35.525C32.775 35.525 36.1594 32.2 36.1594 28C36.1594 23.8 32.775 20.475 28.5 20.475ZM38.1187 20.3C38.1187 21.2665 37.3213 22.05 36.3375 22.05C35.3537 22.05 34.5562 21.2665 34.5562 20.3C34.5562 19.3335 35.3537 18.55 36.3375 18.55C37.3213 18.55 38.1187 19.3335 38.1187 20.3Z" fill="#535456"/>
<path fill-rule="evenodd" clip-rule="evenodd" d="M0 28C0 12.536 12.7599 0 28.5 0C44.2401 0 57 12.536 57 28C57 43.464 44.2401 56 28.5 56C12.7599 56 0 43.464 0 28ZM22.4438 13.475H34.5562C36.1594 13.65 37.2281 13.825 38.1187 14.175C39.1875 14.7 39.9 15.05 40.7906 15.925C41.6812 16.8 42.2156 17.675 42.5719 18.55C42.9281 19.425 43.2844 20.475 43.2844 22.05V33.95C43.1062 35.525 42.9281 36.575 42.5719 37.45C42.0375 38.5 41.6812 39.2 40.7906 40.075C39.9 40.95 39.0094 41.475 38.1187 41.825C37.2281 42.175 36.1594 42.525 34.5562 42.525H22.4438C20.8406 42.35 19.7719 42.175 18.8813 41.825C17.8125 41.3 17.1 40.95 16.2094 40.075C15.3188 39.2 14.7844 38.325 14.4281 37.45C14.0719 36.575 13.7156 35.525 13.7156 33.95V22.05C13.8937 20.475 14.0719 19.425 14.4281 18.55C14.9625 17.5 15.3188 16.8 16.2094 15.925C17.1 15.05 17.9906 14.525 18.8813 14.175C19.7719 13.825 20.8406 13.475 22.4438 13.475Z" fill="#535456"/>
</svg>
