<svg width="124" height="72" viewBox="0 0 124 72" fill="none" xmlns="http://www.w3.org/2000/svg">
<path d="M0 58.4418C0 58.4418 13.8879 25.6726 57.9773 34.0664C100.673 42.1957 117.678 25.8573 120.246 18.7171C126.875 0.286907 100.151 -13.2086 87.0991 21.5955C77.0041 48.5155 89.3099 58.6655 104.384 58.4027C116.223 58.1399 122.305 55.0324 122.305 55.0324C84.7338 66.8995 81.0634 42.3945 90.9489 17.4758C101.014 -7.89565 124.352 3.44765 118.196 19.232C116.763 22.9078 104.581 41.6842 58.2951 31.623C12.0056 21.5565 0 58.4418 0 58.4418Z" fill="black"/>
<path d="M21.4863 0.0203857H23.6172L48.0358 58.4025H45.8055" fill="black"/>
<path d="M82.8369 0.0205078H80.8704L62.7713 57.6475L63.8585 57.2945L63.2348 58.4417H64.5801" fill="black"/>
<path d="M54.4257 36.5664L52.2061 36.5664L63.2546 58.4586L63.9674 58.4586L63.9674 55.6338L54.4257 36.5664Z" fill="black"/>
<path d="M2.95011 68.5934C2.22383 68.5934 1.61967 68.3523 1.13762 67.8703C0.65558 67.3882 0.414558 66.7905 0.414558 66.0771C0.414558 65.3637 0.65558 64.7659 1.13762 64.2839C1.61967 63.8018 2.22383 63.5608 2.95011 63.5608C3.4193 63.5608 3.8435 63.6733 4.22271 63.8982C4.60191 64.1168 4.87829 64.4156 5.05182 64.7948L4.65655 65.0262C4.51515 64.7177 4.29019 64.4735 3.98168 64.2935C3.6796 64.1136 3.33575 64.0236 2.95011 64.0236C2.37808 64.0236 1.89283 64.2228 1.49434 64.6213C1.10227 65.0134 0.906243 65.4986 0.906243 66.0771C0.906243 66.662 1.10227 67.1504 1.49434 67.5425C1.8864 67.9346 2.37166 68.1306 2.95011 68.1306C3.33575 68.1306 3.6796 68.0406 3.98168 67.8606C4.29019 67.6807 4.52479 67.4364 4.68547 67.1279L5.09039 67.369C4.89757 67.7417 4.60834 68.0406 4.22271 68.2656C3.83707 68.4841 3.41287 68.5934 2.95011 68.5934ZM5.43535 63.6669H9.42667V64.1393H7.67203V68.4873H7.18999V64.1393H5.43535V63.6669ZM12.1495 67.9571L13.8271 63.6669H14.3477L12.2652 68.9308C12.0724 69.4128 11.8057 69.7888 11.465 70.0588C11.1244 70.3287 10.7548 70.4476 10.3563 70.4155V69.9624C10.6584 69.9881 10.9348 69.9013 11.1855 69.7021C11.4361 69.5028 11.6386 69.2136 11.7928 68.8344L11.8989 68.5741L9.68148 63.6669H10.2021L12.1495 67.9571ZM18.874 63.6669V68.0149H19.5488V69.7792H19.0572V68.4873H14.8923V69.7792H14.4006V68.0149H14.9598C15.3133 67.5393 15.49 66.8933 15.49 66.0771V63.6669H18.874ZM15.5575 68.0149H18.3823V64.1393H15.9721V66.0771C15.9721 66.8741 15.8339 67.52 15.5575 68.0149ZM21.0899 67.6485L24.1653 63.6669H24.5895V68.4873H24.0978V64.5056L21.032 68.4873H20.6078V63.6669H21.0899V67.6485ZM27.5048 63.6669H29.4137V68.4873H28.9316V66.6073H27.8904L26.3768 68.4873H25.7501L27.2927 66.5977C26.8942 66.5527 26.5632 66.3952 26.2996 66.1253C26.0426 65.8553 25.914 65.5276 25.914 65.1419C25.914 64.7113 26.0683 64.3578 26.3768 64.0814C26.6789 63.805 27.0548 63.6669 27.5048 63.6669ZM27.5048 66.1446H28.9316V64.1393H27.5048C27.1898 64.1393 26.9263 64.2357 26.7142 64.4285C26.5085 64.6149 26.4057 64.8527 26.4057 65.1419C26.4057 65.444 26.5085 65.6882 26.7142 65.8746C26.9263 66.0546 27.1898 66.1446 27.5048 66.1446ZM37.4214 63.6669V68.0149H38.0962V69.7792H37.6046V68.4873H33.4397V69.7792H32.948V68.0149H33.5072C33.8607 67.5393 34.0374 66.8933 34.0374 66.0771V63.6669H37.4214ZM34.1049 68.0149H36.9297V64.1393H34.5195V66.0771C34.5195 66.8741 34.3813 67.52 34.1049 68.0149ZM39.6373 67.6485L42.7127 63.6669H43.1369V68.4873H42.6452V64.5056L39.5794 68.4873H39.1552V63.6669H39.6373V67.6485ZM46.9391 66C47.2283 66.0964 47.4533 66.2506 47.614 66.4627C47.7747 66.6748 47.855 66.9191 47.855 67.1954C47.855 67.6003 47.6943 67.9346 47.373 68.1981C47.058 68.4616 46.6274 68.5934 46.0811 68.5934C45.117 68.5934 44.4903 68.2141 44.2011 67.4557L44.6157 67.2147C44.8213 67.8253 45.3098 68.1306 46.0811 68.1306C46.4796 68.1306 46.7913 68.0438 47.0162 67.8703C47.2476 67.6903 47.3633 67.4557 47.3633 67.1665C47.3633 66.903 47.2669 66.6909 47.0741 66.5302C46.8813 66.3631 46.6242 66.2795 46.3028 66.2795H45.6376V65.8071H46.1196C46.4346 65.8071 46.682 65.7268 46.862 65.5661C47.042 65.4054 47.1319 65.1901 47.1319 64.9202C47.1319 64.6631 47.0259 64.451 46.8138 64.2839C46.6081 64.1103 46.335 64.0236 45.9943 64.0236C45.3387 64.0236 44.9049 64.2839 44.6928 64.8045L44.2879 64.5731C44.4293 64.2582 44.6446 64.0107 44.9338 63.8308C45.223 63.6508 45.5765 63.5608 45.9943 63.5608C46.4828 63.5608 46.8748 63.6926 47.1705 63.9561C47.4662 64.2132 47.614 64.5281 47.614 64.9009C47.614 65.4215 47.389 65.7879 46.9391 66ZM53.1605 64.7563V63.6669H53.6522V68.4873H53.1605V67.3979C52.9484 67.7707 52.6624 68.0631 52.3025 68.2752C51.9425 68.4873 51.5376 68.5934 51.0877 68.5934C50.4064 68.5934 49.8183 68.3523 49.3234 67.8703C48.835 67.3818 48.5907 66.7841 48.5907 66.0771C48.5907 65.3701 48.835 64.7756 49.3234 64.2935C49.8119 63.805 50.4 63.5608 51.0877 63.5608C51.5376 63.5608 51.9425 63.6669 52.3025 63.879C52.6624 64.0911 52.9484 64.3835 53.1605 64.7563ZM49.6705 67.5329C50.069 67.9313 50.5542 68.1306 51.1263 68.1306C51.6919 68.1306 52.1739 67.9313 52.5724 67.5329C52.9645 67.1408 53.1605 66.6555 53.1605 66.0771C53.1605 65.4986 52.9645 65.0134 52.5724 64.6213C52.1739 64.2228 51.6919 64.0236 51.1263 64.0236C50.5542 64.0236 50.069 64.2228 49.6705 64.6213C49.2784 65.0134 49.0824 65.4986 49.0824 66.0771C49.0824 66.6555 49.2784 67.1408 49.6705 67.5329ZM58.3331 62.8281H55.894V62.4039H58.3331V62.8281ZM55.6144 67.6485L58.6898 63.6669H59.114V68.4873H58.6224V64.5056L55.5566 68.4873H55.1324V63.6669H55.6144V67.6485ZM64.0924 65.8457V63.6669H64.5841V68.4873H64.0924V66.3085H61.0845V68.4873H60.6024V63.6669H61.0845V65.8457H64.0924ZM70.3145 64.7563V63.6669H70.8062V68.4873H70.3145V67.3979C70.1024 67.7707 69.8164 68.0631 69.4565 68.2752C69.0965 68.4873 68.6916 68.5934 68.2417 68.5934C67.5604 68.5934 66.9723 68.3523 66.4774 67.8703C65.9889 67.3818 65.7447 66.7841 65.7447 66.0771C65.7447 65.3701 65.9889 64.7756 66.4774 64.2935C66.9659 63.805 67.554 63.5608 68.2417 63.5608C68.6916 63.5608 69.0965 63.6669 69.4565 63.879C69.8164 64.0911 70.1024 64.3835 70.3145 64.7563ZM66.8245 67.5329C67.223 67.9313 67.7082 68.1306 68.2803 68.1306C68.8459 68.1306 69.3279 67.9313 69.7264 67.5329C70.1185 67.1408 70.3145 66.6555 70.3145 66.0771C70.3145 65.4986 70.1185 65.0134 69.7264 64.6213C69.3279 64.2228 68.8459 64.0236 68.2803 64.0236C67.7082 64.0236 67.223 64.2228 66.8245 64.6213C66.4324 65.0134 66.2364 65.4986 66.2364 66.0771C66.2364 66.6555 66.4324 67.1408 66.8245 67.5329ZM75.3387 67.6485L78.4141 63.6669H78.8383V68.4873H78.3466V64.5056L75.2808 68.4873H74.8566V63.6669H75.3387V67.6485ZM83.8167 65.8457V63.6669H84.3084V68.4873H83.8167V66.3085H80.8087V68.4873H80.3267V63.6669H80.8087V65.8457H83.8167ZM85.1798 63.6669H89.1711V64.1393H87.4164V68.4873H86.9344V64.1393H85.1798V63.6669ZM92.0238 63.5608C92.7308 63.5608 93.3028 63.8115 93.7399 64.3128C94.1834 64.8141 94.4051 65.4086 94.4051 66.0964C94.4051 66.1092 94.4019 66.1478 94.3955 66.2121C94.3955 66.2763 94.3955 66.3149 94.3955 66.3277H90.0281C90.086 66.8676 90.3013 67.3047 90.6741 67.6389C91.0469 67.9667 91.5128 68.1306 92.072 68.1306C92.4512 68.1306 92.7854 68.0535 93.0747 67.8992C93.3639 67.7385 93.5856 67.5232 93.7399 67.2533L94.1641 67.5039C93.9648 67.8382 93.6788 68.1049 93.306 68.3041C92.9397 68.4969 92.5251 68.5934 92.0624 68.5934C91.3168 68.5934 90.7094 68.3588 90.2402 67.8896C89.7646 67.414 89.5268 66.8098 89.5268 66.0771C89.5268 65.3572 89.7582 64.7595 90.221 64.2839C90.6966 63.8018 91.2975 63.5608 92.0238 63.5608ZM92.0238 64.0236C91.4839 64.0236 91.0276 64.1939 90.6548 64.5345C90.2884 64.8752 90.0796 65.3155 90.0281 65.8553H93.9038C93.8524 65.2833 93.6467 64.8366 93.2868 64.5153C92.9268 64.1875 92.5058 64.0236 92.0238 64.0236ZM98.0866 63.5608C98.7808 63.5608 99.3689 63.805 99.8509 64.2935C100.339 64.7756 100.584 65.3701 100.584 66.0771C100.584 66.7841 100.339 67.3818 99.8509 67.8703C99.3689 68.3523 98.7808 68.5934 98.0866 68.5934C97.6303 68.5934 97.2189 68.4873 96.8526 68.2752C96.4927 68.0567 96.2131 67.7546 96.0138 67.369V70.4155H95.5318V63.6669H96.0138V64.7852C96.2131 64.3996 96.4927 64.1007 96.8526 63.8886C97.2189 63.6701 97.6303 63.5608 98.0866 63.5608ZM96.6019 67.5329C97.0004 67.9313 97.4857 68.1306 98.0577 68.1306C98.6233 68.1306 99.1053 67.9313 99.5038 67.5329C99.9023 67.1344 100.102 66.6491 100.102 66.0771C100.102 65.5051 99.9023 65.0198 99.5038 64.6213C99.1053 64.2228 98.6233 64.0236 98.0577 64.0236C97.4857 64.0236 97.0004 64.2228 96.6019 64.6213C96.2099 65.0134 96.0138 65.4986 96.0138 66.0771C96.0138 66.6555 96.2099 67.1408 96.6019 67.5329ZM102.228 65.5372H103.655C104.104 65.5372 104.48 65.6754 104.783 65.9518C105.091 66.2281 105.245 66.5816 105.245 67.0122C105.245 67.4429 105.091 67.7964 104.783 68.0727C104.48 68.3491 104.104 68.4873 103.655 68.4873H101.746V63.6669H102.228V65.5372ZM102.228 68.0149H103.655C103.969 68.0149 104.23 67.9217 104.435 67.7353C104.648 67.5425 104.754 67.3015 104.754 67.0122C104.754 66.7102 104.648 66.4691 104.435 66.2892C104.23 66.1028 103.969 66.0096 103.655 66.0096H102.228V68.0149ZM108.425 63.5608C109.132 63.5608 109.704 63.8115 110.141 64.3128C110.584 64.8141 110.806 65.4086 110.806 66.0964C110.806 66.1092 110.803 66.1478 110.796 66.2121C110.796 66.2763 110.796 66.3149 110.796 66.3277H106.429C106.487 66.8676 106.702 67.3047 107.075 67.6389C107.448 67.9667 107.914 68.1306 108.473 68.1306C108.852 68.1306 109.186 68.0535 109.475 67.8992C109.765 67.7385 109.986 67.5232 110.141 67.2533L110.565 67.5039C110.366 67.8382 110.08 68.1049 109.707 68.3041C109.34 68.4969 108.926 68.5934 108.463 68.5934C107.718 68.5934 107.11 68.3588 106.641 67.8896C106.165 67.414 105.928 66.8098 105.928 66.0771C105.928 65.3572 106.159 64.7595 106.622 64.2839C107.097 63.8018 107.698 63.5608 108.425 63.5608ZM108.425 64.0236C107.885 64.0236 107.428 64.1939 107.056 64.5345C106.689 64.8752 106.48 65.3155 106.429 65.8553H110.305C110.253 65.2833 110.047 64.8366 109.688 64.5153C109.328 64.1875 108.907 64.0236 108.425 64.0236ZM114.487 63.5608C115.182 63.5608 115.77 63.805 116.252 64.2935C116.74 64.7756 116.984 65.3701 116.984 66.0771C116.984 66.7841 116.74 67.3818 116.252 67.8703C115.77 68.3523 115.182 68.5934 114.487 68.5934C114.031 68.5934 113.62 68.4873 113.253 68.2752C112.893 68.0567 112.614 67.7546 112.415 67.369V70.4155H111.933V63.6669H112.415V64.7852C112.614 64.3996 112.893 64.1007 113.253 63.8886C113.62 63.6701 114.031 63.5608 114.487 63.5608ZM113.003 67.5329C113.401 67.9313 113.886 68.1306 114.459 68.1306C115.024 68.1306 115.506 67.9313 115.905 67.5329C116.303 67.1344 116.502 66.6491 116.502 66.0771C116.502 65.5051 116.303 65.0198 115.905 64.6213C115.506 64.2228 115.024 64.0236 114.459 64.0236C113.886 64.0236 113.401 64.2228 113.003 64.6213C112.611 65.0134 112.415 65.4986 112.415 66.0771C112.415 66.6555 112.611 67.1408 113.003 67.5329ZM122.388 64.7563V63.6669H122.88V68.4873H122.388V67.3979C122.176 67.7707 121.89 68.0631 121.53 68.2752C121.17 68.4873 120.766 68.5934 120.316 68.5934C119.634 68.5934 119.046 68.3523 118.551 67.8703C118.063 67.3818 117.819 66.7841 117.819 66.0771C117.819 65.3701 118.063 64.7756 118.551 64.2935C119.04 63.805 119.628 63.5608 120.316 63.5608C120.766 63.5608 121.17 63.6669 121.53 63.879C121.89 64.0911 122.176 64.3835 122.388 64.7563ZM118.898 67.5329C119.297 67.9313 119.782 68.1306 120.354 68.1306C120.92 68.1306 121.402 67.9313 121.8 67.5329C122.192 67.1408 122.388 66.6555 122.388 66.0771C122.388 65.4986 122.192 65.0134 121.8 64.6213C121.402 64.2228 120.92 64.0236 120.354 64.0236C119.782 64.0236 119.297 64.2228 118.898 64.6213C118.506 65.0134 118.31 65.4986 118.31 66.0771C118.31 66.6555 118.506 67.1408 118.898 67.5329Z" fill="black"/>
</svg>
