<svg width="120" height="72" viewBox="0 0 120 72" fill="none" xmlns="http://www.w3.org/2000/svg">
<path d="M-4 58.4418C-4 58.4418 9.88791 25.6726 53.9773 34.0664C96.6727 42.1957 113.678 25.8573 116.246 18.7171C122.875 0.286907 96.1506 -13.2086 83.0991 21.5955C73.0041 48.5155 85.3099 58.6655 100.384 58.4027C112.223 58.1399 118.305 55.0324 118.305 55.0324C80.7338 66.8995 77.0634 42.3945 86.9489 17.4758C97.0136 -7.89565 120.352 3.44765 114.196 19.232C112.763 22.9078 100.581 41.6842 54.2951 31.623C8.00565 21.5565 -4 58.4418 -4 58.4418Z" fill="black"/>
<path d="M17.4861 0.0203857H19.6169L44.0356 58.4025H41.8053" fill="black"/>
<path d="M78.8369 0.0205078H76.8704L58.7713 57.6475L59.8585 57.2945L59.2348 58.4417H60.5801" fill="black"/>
<path d="M50.4257 36.5664L48.2061 36.5664L59.2546 58.4586L59.9674 58.4586L59.9674 55.6338L50.4257 36.5664Z" fill="black"/>
<path d="M-1.04989 68.5934C-1.77617 68.5934 -2.38033 68.3523 -2.86238 67.8703C-3.34442 67.3882 -3.58544 66.7905 -3.58544 66.0771C-3.58544 65.3637 -3.34442 64.7659 -2.86238 64.2839C-2.38033 63.8018 -1.77617 63.5608 -1.04989 63.5608C-0.580701 63.5608 -0.156502 63.6733 0.222706 63.8982C0.601914 64.1168 0.878286 64.4156 1.05182 64.7948L0.656546 65.0262C0.515146 64.7177 0.290193 64.4735 -0.0183158 64.2935C-0.320397 64.1136 -0.664255 64.0236 -1.04989 64.0236C-1.62192 64.0236 -2.10717 64.2228 -2.50566 64.6213C-2.89773 65.0134 -3.09376 65.4986 -3.09376 66.0771C-3.09376 66.662 -2.89773 67.1504 -2.50566 67.5425C-2.1136 67.9346 -1.62834 68.1306 -1.04989 68.1306C-0.664255 68.1306 -0.320397 68.0406 -0.0183158 67.8606C0.290193 67.6807 0.524787 67.4364 0.685469 67.1279L1.09039 67.369C0.897568 67.7417 0.608342 68.0406 0.222706 68.2656C-0.162929 68.4841 -0.587128 68.5934 -1.04989 68.5934ZM1.43535 63.6669H5.42667V64.1393H3.67203V68.4873H3.18999V64.1393H1.43535V63.6669ZM8.14954 67.9571L9.82706 63.6669H10.3477L8.26523 68.9308C8.07242 69.4128 7.80569 69.7888 7.46504 70.0588C7.1244 70.3287 6.75483 70.4476 6.35634 70.4155V69.9624C6.65842 69.9881 6.93479 69.9013 7.18546 69.7021C7.43612 69.5028 7.63858 69.2136 7.79283 68.8344L7.89888 68.5741L5.68148 63.6669H6.20209L8.14954 67.9571ZM14.874 63.6669V68.0149H15.5488V69.7792H15.0572V68.4873H10.8923V69.7792H10.4006V68.0149H10.9598C11.3133 67.5393 11.49 66.8933 11.49 66.0771V63.6669H14.874ZM11.5575 68.0149H14.3823V64.1393H11.9721V66.0771C11.9721 66.8741 11.8339 67.52 11.5575 68.0149ZM17.0899 67.6485L20.1653 63.6669H20.5895V68.4873H20.0978V64.5056L17.032 68.4873H16.6078V63.6669H17.0899V67.6485ZM23.5048 63.6669H25.4137V68.4873H24.9316V66.6073H23.8904L22.3768 68.4873H21.7501L23.2927 66.5977C22.8942 66.5527 22.5632 66.3952 22.2996 66.1253C22.0426 65.8553 21.914 65.5276 21.914 65.1419C21.914 64.7113 22.0683 64.3578 22.3768 64.0814C22.6789 63.805 23.0548 63.6669 23.5048 63.6669ZM23.5048 66.1446H24.9316V64.1393H23.5048C23.1898 64.1393 22.9263 64.2357 22.7142 64.4285C22.5085 64.6149 22.4057 64.8527 22.4057 65.1419C22.4057 65.444 22.5085 65.6882 22.7142 65.8746C22.9263 66.0546 23.1898 66.1446 23.5048 66.1446ZM33.4214 63.6669V68.0149H34.0962V69.7792H33.6046V68.4873H29.4397V69.7792H28.948V68.0149H29.5072C29.8607 67.5393 30.0374 66.8933 30.0374 66.0771V63.6669H33.4214ZM30.1049 68.0149H32.9297V64.1393H30.5195V66.0771C30.5195 66.8741 30.3813 67.52 30.1049 68.0149ZM35.6373 67.6485L38.7127 63.6669H39.1369V68.4873H38.6452V64.5056L35.5794 68.4873H35.1552V63.6669H35.6373V67.6485ZM42.9391 66C43.2283 66.0964 43.4533 66.2506 43.614 66.4627C43.7747 66.6748 43.855 66.9191 43.855 67.1954C43.855 67.6003 43.6943 67.9346 43.373 68.1981C43.058 68.4616 42.6274 68.5934 42.0811 68.5934C41.117 68.5934 40.4903 68.2141 40.2011 67.4557L40.6157 67.2147C40.8213 67.8253 41.3098 68.1306 42.0811 68.1306C42.4796 68.1306 42.7913 68.0438 43.0162 67.8703C43.2476 67.6903 43.3633 67.4557 43.3633 67.1665C43.3633 66.903 43.2669 66.6909 43.0741 66.5302C42.8813 66.3631 42.6242 66.2795 42.3028 66.2795H41.6376V65.8071H42.1196C42.4346 65.8071 42.682 65.7268 42.862 65.5661C43.042 65.4054 43.1319 65.1901 43.1319 64.9202C43.1319 64.6631 43.0259 64.451 42.8138 64.2839C42.6081 64.1103 42.335 64.0236 41.9943 64.0236C41.3387 64.0236 40.9049 64.2839 40.6928 64.8045L40.2879 64.5731C40.4293 64.2582 40.6446 64.0107 40.9338 63.8308C41.223 63.6508 41.5765 63.5608 41.9943 63.5608C42.4828 63.5608 42.8748 63.6926 43.1705 63.9561C43.4662 64.2132 43.614 64.5281 43.614 64.9009C43.614 65.4215 43.389 65.7879 42.9391 66ZM49.1605 64.7563V63.6669H49.6522V68.4873H49.1605V67.3979C48.9484 67.7707 48.6624 68.0631 48.3025 68.2752C47.9425 68.4873 47.5376 68.5934 47.0877 68.5934C46.4064 68.5934 45.8183 68.3523 45.3234 67.8703C44.835 67.3818 44.5907 66.7841 44.5907 66.0771C44.5907 65.3701 44.835 64.7756 45.3234 64.2935C45.8119 63.805 46.4 63.5608 47.0877 63.5608C47.5376 63.5608 47.9425 63.6669 48.3025 63.879C48.6624 64.0911 48.9484 64.3835 49.1605 64.7563ZM45.6705 67.5329C46.069 67.9313 46.5542 68.1306 47.1263 68.1306C47.6919 68.1306 48.1739 67.9313 48.5724 67.5329C48.9645 67.1408 49.1605 66.6555 49.1605 66.0771C49.1605 65.4986 48.9645 65.0134 48.5724 64.6213C48.1739 64.2228 47.6919 64.0236 47.1263 64.0236C46.5542 64.0236 46.069 64.2228 45.6705 64.6213C45.2784 65.0134 45.0824 65.4986 45.0824 66.0771C45.0824 66.6555 45.2784 67.1408 45.6705 67.5329ZM54.3331 62.8281H51.894V62.4039H54.3331V62.8281ZM51.6144 67.6485L54.6898 63.6669H55.114V68.4873H54.6224V64.5056L51.5566 68.4873H51.1324V63.6669H51.6144V67.6485ZM60.0924 65.8457V63.6669H60.5841V68.4873H60.0924V66.3085H57.0845V68.4873H56.6024V63.6669H57.0845V65.8457H60.0924ZM66.3145 64.7563V63.6669H66.8062V68.4873H66.3145V67.3979C66.1024 67.7707 65.8164 68.0631 65.4565 68.2752C65.0965 68.4873 64.6916 68.5934 64.2417 68.5934C63.5604 68.5934 62.9723 68.3523 62.4774 67.8703C61.9889 67.3818 61.7447 66.7841 61.7447 66.0771C61.7447 65.3701 61.9889 64.7756 62.4774 64.2935C62.9659 63.805 63.554 63.5608 64.2417 63.5608C64.6916 63.5608 65.0965 63.6669 65.4565 63.879C65.8164 64.0911 66.1024 64.3835 66.3145 64.7563ZM62.8245 67.5329C63.223 67.9313 63.7082 68.1306 64.2803 68.1306C64.8459 68.1306 65.3279 67.9313 65.7264 67.5329C66.1185 67.1408 66.3145 66.6555 66.3145 66.0771C66.3145 65.4986 66.1185 65.0134 65.7264 64.6213C65.3279 64.2228 64.8459 64.0236 64.2803 64.0236C63.7082 64.0236 63.223 64.2228 62.8245 64.6213C62.4324 65.0134 62.2364 65.4986 62.2364 66.0771C62.2364 66.6555 62.4324 67.1408 62.8245 67.5329ZM71.3387 67.6485L74.4141 63.6669H74.8383V68.4873H74.3466V64.5056L71.2808 68.4873H70.8566V63.6669H71.3387V67.6485ZM79.8167 65.8457V63.6669H80.3084V68.4873H79.8167V66.3085H76.8087V68.4873H76.3267V63.6669H76.8087V65.8457H79.8167ZM81.1798 63.6669H85.1711V64.1393H83.4164V68.4873H82.9344V64.1393H81.1798V63.6669ZM88.0238 63.5608C88.7308 63.5608 89.3028 63.8115 89.7399 64.3128C90.1834 64.8141 90.4051 65.4086 90.4051 66.0964C90.4051 66.1092 90.4019 66.1478 90.3955 66.2121C90.3955 66.2763 90.3955 66.3149 90.3955 66.3277H86.0281C86.086 66.8676 86.3013 67.3047 86.6741 67.6389C87.0469 67.9667 87.5128 68.1306 88.072 68.1306C88.4512 68.1306 88.7854 68.0535 89.0747 67.8992C89.3639 67.7385 89.5856 67.5232 89.7399 67.2533L90.1641 67.5039C89.9648 67.8382 89.6788 68.1049 89.306 68.3041C88.9397 68.4969 88.5251 68.5934 88.0624 68.5934C87.3168 68.5934 86.7094 68.3588 86.2402 67.8896C85.7646 67.414 85.5268 66.8098 85.5268 66.0771C85.5268 65.3572 85.7582 64.7595 86.221 64.2839C86.6966 63.8018 87.2975 63.5608 88.0238 63.5608ZM88.0238 64.0236C87.4839 64.0236 87.0276 64.1939 86.6548 64.5345C86.2884 64.8752 86.0796 65.3155 86.0281 65.8553H89.9038C89.8524 65.2833 89.6467 64.8366 89.2868 64.5153C88.9268 64.1875 88.5058 64.0236 88.0238 64.0236ZM94.0866 63.5608C94.7808 63.5608 95.3689 63.805 95.8509 64.2935C96.3394 64.7756 96.5836 65.3701 96.5836 66.0771C96.5836 66.7841 96.3394 67.3818 95.8509 67.8703C95.3689 68.3523 94.7808 68.5934 94.0866 68.5934C93.6303 68.5934 93.2189 68.4873 92.8526 68.2752C92.4927 68.0567 92.2131 67.7546 92.0138 67.369V70.4155H91.5318V63.6669H92.0138V64.7852C92.2131 64.3996 92.4927 64.1007 92.8526 63.8886C93.2189 63.6701 93.6303 63.5608 94.0866 63.5608ZM92.6019 67.5329C93.0004 67.9313 93.4857 68.1306 94.0577 68.1306C94.6233 68.1306 95.1053 67.9313 95.5038 67.5329C95.9023 67.1344 96.1016 66.6491 96.1016 66.0771C96.1016 65.5051 95.9023 65.0198 95.5038 64.6213C95.1053 64.2228 94.6233 64.0236 94.0577 64.0236C93.4857 64.0236 93.0004 64.2228 92.6019 64.6213C92.2099 65.0134 92.0138 65.4986 92.0138 66.0771C92.0138 66.6555 92.2099 67.1408 92.6019 67.5329ZM98.2277 65.5372H99.6545C100.104 65.5372 100.48 65.6754 100.783 65.9518C101.091 66.2281 101.245 66.5816 101.245 67.0122C101.245 67.4429 101.091 67.7964 100.783 68.0727C100.48 68.3491 100.104 68.4873 99.6545 68.4873H97.7456V63.6669H98.2277V65.5372ZM98.2277 68.0149H99.6545C99.9695 68.0149 100.23 67.9217 100.435 67.7353C100.648 67.5425 100.754 67.3015 100.754 67.0122C100.754 66.7102 100.648 66.4691 100.435 66.2892C100.23 66.1028 99.9695 66.0096 99.6545 66.0096H98.2277V68.0149ZM104.425 63.5608C105.132 63.5608 105.704 63.8115 106.141 64.3128C106.584 64.8141 106.806 65.4086 106.806 66.0964C106.806 66.1092 106.803 66.1478 106.796 66.2121C106.796 66.2763 106.796 66.3149 106.796 66.3277H102.429C102.487 66.8676 102.702 67.3047 103.075 67.6389C103.448 67.9667 103.914 68.1306 104.473 68.1306C104.852 68.1306 105.186 68.0535 105.475 67.8992C105.765 67.7385 105.986 67.5232 106.141 67.2533L106.565 67.5039C106.366 67.8382 106.08 68.1049 105.707 68.3041C105.34 68.4969 104.926 68.5934 104.463 68.5934C103.718 68.5934 103.11 68.3588 102.641 67.8896C102.165 67.414 101.928 66.8098 101.928 66.0771C101.928 65.3572 102.159 64.7595 102.622 64.2839C103.097 63.8018 103.698 63.5608 104.425 63.5608ZM104.425 64.0236C103.885 64.0236 103.428 64.1939 103.056 64.5345C102.689 64.8752 102.48 65.3155 102.429 65.8553H106.305C106.253 65.2833 106.047 64.8366 105.688 64.5153C105.328 64.1875 104.907 64.0236 104.425 64.0236ZM110.487 63.5608C111.182 63.5608 111.77 63.805 112.252 64.2935C112.74 64.7756 112.984 65.3701 112.984 66.0771C112.984 66.7841 112.74 67.3818 112.252 67.8703C111.77 68.3523 111.182 68.5934 110.487 68.5934C110.031 68.5934 109.62 68.4873 109.253 68.2752C108.893 68.0567 108.614 67.7546 108.415 67.369V70.4155H107.933V63.6669H108.415V64.7852C108.614 64.3996 108.893 64.1007 109.253 63.8886C109.62 63.6701 110.031 63.5608 110.487 63.5608ZM109.003 67.5329C109.401 67.9313 109.886 68.1306 110.459 68.1306C111.024 68.1306 111.506 67.9313 111.905 67.5329C112.303 67.1344 112.502 66.6491 112.502 66.0771C112.502 65.5051 112.303 65.0198 111.905 64.6213C111.506 64.2228 111.024 64.0236 110.459 64.0236C109.886 64.0236 109.401 64.2228 109.003 64.6213C108.611 65.0134 108.415 65.4986 108.415 66.0771C108.415 66.6555 108.611 67.1408 109.003 67.5329ZM118.388 64.7563V63.6669H118.88V68.4873H118.388V67.3979C118.176 67.7707 117.89 68.0631 117.53 68.2752C117.17 68.4873 116.766 68.5934 116.316 68.5934C115.634 68.5934 115.046 68.3523 114.551 67.8703C114.063 67.3818 113.819 66.7841 113.819 66.0771C113.819 65.3701 114.063 64.7756 114.551 64.2935C115.04 63.805 115.628 63.5608 116.316 63.5608C116.766 63.5608 117.17 63.6669 117.53 63.879C117.89 64.0911 118.176 64.3835 118.388 64.7563ZM114.898 67.5329C115.297 67.9313 115.782 68.1306 116.354 68.1306C116.92 68.1306 117.402 67.9313 117.8 67.5329C118.192 67.1408 118.388 66.6555 118.388 66.0771C118.388 65.4986 118.192 65.0134 117.8 64.6213C117.402 64.2228 116.92 64.0236 116.354 64.0236C115.782 64.0236 115.297 64.2228 114.898 64.6213C114.506 65.0134 114.31 65.4986 114.31 66.0771C114.31 66.6555 114.506 67.1408 114.898 67.5329Z" fill="black"/>
</svg>
