<svg width="57" height="56" viewBox="0 0 57 56" fill="none" xmlns="http://www.w3.org/2000/svg">
<path fill-rule="evenodd" clip-rule="evenodd" d="M28.5 56C12.7599 56 0 43.464 0 28C0 12.536 12.7599 0 28.5 0C44.2401 0 57 12.536 57 28C57 43.464 44.2401 56 28.5 56ZM29.7324 21.0129C27.1798 22.056 22.0784 24.2148 14.428 27.4895C13.1857 27.9749 12.5349 28.4497 12.4757 28.914C12.3755 29.6986 13.3757 30.0076 14.7376 30.4283C14.9229 30.4855 15.1148 30.5448 15.3116 30.6077C16.6515 31.0356 18.454 31.5362 19.391 31.5561C20.2409 31.5742 21.1896 31.2299 22.2369 30.5233C29.3849 25.7829 33.0748 23.3868 33.3064 23.3352C33.4698 23.2987 33.6963 23.2529 33.8498 23.3869C34.0032 23.5209 33.9881 23.7746 33.9719 23.8427C33.8728 24.2577 29.9469 27.8435 27.9152 29.6992C27.2819 30.2777 26.8326 30.6881 26.7408 30.7818C26.535 30.9917 26.3254 31.1903 26.1238 31.3812C24.879 32.5601 23.9455 33.4442 26.1755 34.888C27.2472 35.5818 28.1047 36.1556 28.9602 36.7279C29.8945 37.353 30.8264 37.9765 32.0321 38.753C32.3393 38.9508 32.6327 39.1563 32.9184 39.3565C34.0057 40.118 34.9826 40.8022 36.1894 40.6931C36.8906 40.6297 37.615 39.9819 37.9829 38.0498C38.8522 33.4836 40.5611 23.5902 40.9561 19.5133C40.9907 19.1561 40.9472 18.699 40.9122 18.4983C40.8772 18.2977 40.8042 18.0118 40.5387 17.8001C40.2243 17.5494 39.7389 17.4966 39.5218 17.5002C38.5347 17.5174 37.0203 18.0348 29.7324 21.0129Z" fill="#535456"/>
</svg>
